<?xml version="1.0" encoding="utf-8"?>
<svg xmlns="http://www.w3.org/2000/svg"
	xmlns:xlink="http://www.w3.org/1999/xlink"
	width="122px" height="113px" viewBox="0 0 122 113">
<path fillRule="evenodd" d="M 121.39 25.84C 121.04 27.61 120.64 29.37 120.24 31.12 119.85 32.88 119.44 34.63 118.99 36.37 118.11 39.86 117.28 43.36 116.33 46.83 116.03 47.9 114.92 48.53 113.85 48.23 113.63 48.17 113.43 48.08 113.25 47.96 113.25 47.96 113.2 47.92 113.2 47.92 107.27 43.85 101.41 39.69 95.64 35.4 95.64 35.4 95.58 35.36 95.58 35.36 94.71 34.71 94.53 33.48 95.17 32.6 95.42 32.27 95.76 32.04 96.12 31.91 99.89 30.63 103.9 29.46 105.91 28.79 87.49-0.68 44.08-6.26 20.02 22.7 18.89 24.1 17.7 25.4 16.79 26.83 11.2 34.77 9.05 41.39 7.64 50.91 7.58 51.32 7.19 51.6 6.78 51.54 6.38 51.48 6.09 51.1 6.15 50.69 7.13 43.89 7.93 40.1 10.36 34.24 13.28 27.58 16.35 21.67 23.89 14.5 31.6 6.79 48.7-0.23 62.45 0.01 80.83-0.1 98.28 8.86 110.08 27.53 112.1 26.95 113.31 26.56 115.64 25.95 116.22 25.8 116.81 26.14 116.96 26.72 117.1 27.24 116.83 27.77 116.36 27.98 111.74 30.07 104.75 32.81 101 34.29 105.13 37.13 109.22 40.03 113.28 42.98 114.06 40.46 114.88 37.95 115.68 35.43 116.22 33.71 116.8 32.01 117.4 30.31 117.99 28.61 118.57 26.91 119.21 25.22 119.43 24.63 120.09 24.33 120.68 24.56 121.2 24.76 121.5 25.31 121.39 25.84ZM 58.87 52.97C 62.55 53.78 67.81 54.62 71.69 58.52 78.53 64.97 74.07 76.71 62.63 78.13 62.63 78.13 62.09 83.83 62.09 83.83 61.85 86.26 58.29 86.26 58.05 83.83 58.05 83.83 57.5 78.04 57.5 78.04 53.14 77.36 49.9 75.47 46.86 72.95 45.48 71.81 46.82 69.62 48.47 70.32 52.27 71.94 56.51 73.78 60.98 73.35 68.9 72.69 72.37 66.04 68.29 61.78 65.92 59.21 62.39 58.35 60.04 57.71 60.04 57.71 57.91 57.22 57.91 57.22 40.66 52.95 44.33 37.24 57.51 35.32 57.51 35.32 57.97 29.66 57.97 29.66 58.18 27.09 61.96 27.1 62.17 29.66 62.17 29.66 62.63 35.26 62.63 35.26 65.88 35.61 69.25 37.01 71.54 38.68 72.97 39.72 71.88 41.96 70.19 41.5 64.73 39.82 57.04 38.18 52.47 42.52 49.18 45.64 49.97 50.74 58.87 52.97ZM 7.55 65.04C 7.77 65.1 7.97 65.2 8.15 65.31 8.15 65.31 8.21 65.35 8.21 65.35 14.17 69.37 20.08 73.46 25.91 77.68 25.91 77.68 25.96 77.72 25.96 77.72 26.86 78.37 27.06 79.62 26.41 80.52 26.16 80.86 25.83 81.1 25.46 81.23 22.48 82.3 19.48 83.3 16.48 84.33 25.01 97.68 34.99 103.78 49.06 107.53 55.28 109.13 62.33 110.75 73.21 108.23 79.06 107.02 87.3 103.64 94.91 97.38 96.3 96.28 98.43 94.31 101.02 91.44 102.02 90.46 105.2 86.8 106.11 85.33 113.06 74.94 114.14 66.69 114.92 61.14 115.06 60.14 116.56 60.34 116.44 61.34 115.3 70.41 114.67 72.52 111.7 80.02 106.2 91.08 103.12 94.97 94.46 101.74 93.64 102.4 92.7 102.91 91.82 103.5 90.07 104.71 88.13 105.65 86.21 106.66 77.2 110.89 70.02 112.19 60.88 112.53 56.48 112.66 52.19 112.48 48.1 111.54 34.48 108.73 19.44 97.12 12.82 85.54 10.81 86.18 9.55 86.62 7.2 87.3 6.52 87.5 5.81 87.11 5.62 86.44 5.44 85.82 5.74 85.18 6.3 84.92 11.35 82.58 18.5 79.71 20.52 78.89 16.37 76.06 12.25 73.18 8.17 70.26 7.4 72.8 6.61 75.32 5.82 77.85 4.77 81.29 3.6 84.7 2.4 88.1 2.2 88.69 1.55 89 0.96 88.79 0.41 88.6 0.11 88.04 0.22 87.49 0.94 83.96 1.69 80.44 2.54 76.94 3.39 73.45 4.2 69.94 5.12 66.47 5.4 65.4 6.49 64.76 7.55 65.04Z" fill="rgb(77,41,0)"/></svg>