<?xml version="1.0" encoding="utf-8"?>
<svg xmlns="http://www.w3.org/2000/svg"
	xmlns:xlink="http://www.w3.org/1999/xlink"
	width="91px" height="120px" viewBox="0 0 91 120">
<path fillRule="evenodd" d="M 75.14 81.78C 75 81.28 74.61 80.86 74.07 80.71 73.26 80.49 72.42 80.97 72.2 81.78 70.89 86.59 71.2 106.75 71.99 111.17 72.11 111.85 72.64 112.42 73.37 112.55 74.3 112.72 75.19 112.1 75.35 111.17 76.14 106.73 76.46 86.62 75.14 81.78ZM 16.4 74.63C 14.9 74.84 14.9 77.02 16.4 77.24 16.4 77.24 30.84 79.24 63.97 77.79 69.26 77.55 72.78 77.24 72.78 77.24 73.4 77.18 73.91 76.69 73.97 76.05 74.03 75.33 73.5 74.7 72.78 74.63 72.78 74.63 69.26 74.31 63.97 74.08 53.4 73.61 26.97 73.14 16.4 74.63ZM 17.45 111.83C 17.45 111.83 17.66 109.97 17.8 107.18 17.99 102.82 18.29 87.41 17.34 82.05 17.01 80.21 14.35 80.2 14.02 82.05 13.09 87.24 13.34 102.31 13.56 107.18 13.69 109.97 13.9 111.83 13.9 111.83 13.99 112.64 14.63 113.32 15.48 113.41 16.46 113.52 17.34 112.81 17.45 111.83ZM 72.78 116C 61.78 115.16 26.78 114.83 16.4 116.32 14.93 116.53 14.93 118.67 16.4 118.88 26.85 120.37 61.95 120.02 72.78 119.19 73.56 119.14 74.19 118.52 74.26 117.72 74.32 116.84 73.67 116.07 72.78 116ZM 44.69 48.64C 46.8 48.46 48.61 48.44 51.35 46.96 58.45 43.36 62.6 34.27 63.29 26.4 63.47 24.95 63.44 24.01 63.49 22.68 63.41 20.36 63.46 18.29 63.28 16.56 62.93 14.74 62.4 13.38 61.81 12.74 61.24 12.03 60.79 11.7 60.79 11.7 60.65 11.6 60.49 11.52 60.32 11.47 59.53 11.24 58.7 11.68 58.47 12.48 58.47 12.48 58.31 13.01 58.28 13.93 58.33 14.89 58.28 16.01 58.58 17.32 58.67 18.05 58.87 18.86 59.04 19.75 59.17 20.65 59.17 21.65 59.22 22.7 59.19 23.61 59.23 25.05 59.08 26.08 58.83 29.62 57.68 33.86 55.63 37.31 47.38 50.94 33.32 44.83 30.15 28.25 29.55 25.26 29.75 22.75 29.83 20.63 30.98 10.25 34.86 4.87 46.19 5.55 50.78 5.86 51.82 7.09 53.94 7.83 54.61 8.15 54.89 8.21 55.38 8.32 56.88 8.67 58.11 7.08 57.35 5.72 54.21 0.03 36.59-2.03 30.01 7.6 21.97 18.51 26.54 48.01 44.69 48.64ZM 90.44 92.39C 89.89 88.21 86.82 71.4 83.2 60.93 83.15 60.82 82.93 60.39 82.87 60.28 81.08 56.6 73.72 53.91 69.94 52.65 65.14 51.06 61.18 50.02 58.18 50.35 57.23 50.49 56.95 51.75 57.77 52.27 57.77 52.28 58.83 52.96 60.71 53.7 62.98 54.59 74.43 57.67 78.44 61.51 78.65 61.79 78.99 62.09 79.03 62.3 79.03 62.31 79.12 62.45 79.13 62.46 81.96 71.91 81.61 69.85 84.99 86.87 85.46 89.12 86.98 97.25 86.84 99.45 86.82 99.31 86.82 99.54 86.68 99.76 85.98 101.07 81.88 104.44 80.68 105.72 79.81 106.66 80.81 108.14 82.01 107.67 84.13 106.9 90.8 103.45 90.93 99.11 90.83 96.99 90.88 94.69 90.44 92.39ZM 32.51 51.21C 33.27 50.72 33.15 49.47 32.04 49.29 27.7 48.68 8.42 54.67 6.7 61.56 1.35 77.23 0.07 83.29 0.45 99.01 0.47 99.26 0.47 99.43 0.51 99.64 1.09 102.64 3.08 104.23 5.65 105.93 6.52 106.46 7.71 107.11 8.64 107.49 9.84 107.95 10.84 106.46 9.96 105.53 8.88 104.37 6.17 101.92 5.33 100.88 4.94 100.45 4.68 99.86 4.62 99.84 4.38 99.97 4.75 92.39 4.76 92.11 4.81 87.72 5.79 80.49 5.92 80.27 9.51 65.57 7.61 73.16 9.77 66.22 11.96 59.57 10.43 64.13 11.26 61.95 11.52 61.67 11.68 61.36 12.05 61.06 13.35 59.84 15.14 58.8 16.82 57.91 23.73 54.22 28.96 53.47 32.51 51.21ZM 54.2 53.93C 49.27 57.62 46.98 58.42 42.94 57.84 42.34 57.67 41.72 57.58 41.14 57.35 38.47 56.44 36.96 55.26 34.84 53.94 34 53.43 33.02 54.36 33.49 55.22 36.72 61.15 43.77 64.16 49.9 61.44 51.62 60.79 54.3 58.65 55.56 56.53 55.96 55.92 56.17 55.57 56.17 55.57 56.81 54.45 55.58 52.99 54.2 53.93Z" fill="rgb(77,41,0)"/></svg>