<?xml version="1.0" encoding="utf-8"?>
<svg xmlns="http://www.w3.org/2000/svg"
	xmlns:xlink="http://www.w3.org/1999/xlink"
	width="85px" height="120px" viewBox="0 0 85 120">
<path fillRule="evenodd" d="M 42.29 21.27C 47.94 21.52 52.68 13.65 50.24 5.82 49.05 1.88 46.13 0.11 41.99 0.17 29.78 0.17 31.94 20.7 42.29 21.27ZM 37.99 8.02C 38.29 5.33 39.39 4.01 42.14 3.83 44.58 3.63 46.48 4.4 47.13 6.75 48.18 11.45 46.4 17.16 42.42 17.46 42.36 17.45 42.27 17.44 42.24 17.44 40.86 17.45 38.48 15.39 38.05 11.63 37.97 10.87 37.96 10.66 37.93 9.77 37.93 9.77 37.93 9.85 37.93 9.85 37.93 9.85 37.89 9.14 37.99 8.02ZM 50.1 58.35C 48.77 68.7 49.71 83.86 50.11 87.44 50.3 89.15 52.79 89.15 52.98 87.44 53.4 83.72 54.31 68.76 52.99 58.35 52.78 56.66 50.31 56.66 50.1 58.35ZM 47.98 86.01C 46.88 85.84 41.81 85.45 40.69 85.36 38.81 85.2 36.68 85.35 35.07 85.62 35.98 76.91 35.09 61.8 34.83 58.35 34.7 56.59 32.09 56.57 31.96 58.35 31.49 64.7 30.78 79.95 31.95 87.44 32.04 88.02 32.4 88.38 32.83 88.56 32.99 88.7 33.17 88.82 33.39 88.89 34.98 89.38 38.06 89.75 40.69 89.53 40.69 89.53 45.7 89.12 45.7 89.12 47.07 89.01 47.98 88.88 47.98 88.88 48.6 88.79 49.11 88.31 49.21 87.65 49.32 86.86 48.77 86.13 47.98 86.01ZM 31.49 53.24C 30.62 52.96 29.64 52.05 29.39 50.89 29.3 50.43 29.33 50.2 29.37 49.19 29.49 43.75 29.46 43.95 29.06 31.43 29.05 31.51 29.06 31.27 29.06 31.21 29.35 25.68 33.67 25.4 36.61 25.32 38.47 29.57 43.24 30.26 46.62 28.42 47.94 27.69 46.92 25.66 45.51 26.37 43.36 27.44 39.69 27.14 38.91 23.56 38.79 22.96 38.26 22.5 37.62 22.47 34.88 22.37 30.36 21.75 27.22 26.06 25.07 28.98 25.41 31.43 25.24 36.73 25.12 40.05 25.01 43.38 25.04 46.7 25.1 49.6 24.69 53.17 28.17 54.92 29.19 55.42 30.54 55.66 31.59 55.21 32.48 54.83 32.42 53.53 31.49 53.24ZM 59.44 30.39C 58.8 25.67 54.57 22.64 50.73 22.55 50.15 22.49 49.72 22.68 49.01 22.72 47.57 22.81 47.57 24.96 49.01 25.05 49.01 25.05 49.16 25.06 49.44 25.08 49.7 25.12 50.19 25.26 50.58 25.26 52.51 25.4 54.25 26.45 55.22 28.32 56.76 31.25 55.14 34.44 55.61 50.38 55.6 51.3 55.08 52.12 54.54 52.58 54.26 52.82 54.01 52.96 53.87 53.07 53.35 53.28 52.95 53.39 52.79 53.97 52.63 54.55 52.98 55.14 53.55 55.3 54.91 55.67 56.64 55.33 57.99 54.08 58.76 53.39 59.46 52.31 59.7 50.99 60.14 49.05 59.71 32.59 59.44 30.39ZM 14.27 113.91C 14.27 113.91 4.56 115.24 4.56 115.24 4.56 115.24 5.56 106.5 5.56 106.5 5.77 104.58 2.91 104.17 2.58 106.08 2.58 106.08 0.7 117.1 0.7 117.1 0.44 118.25 1.53 119.42 2.81 119.14 2.81 119.14 14.74 116.52 14.74 116.52 16.38 116.15 15.95 113.68 14.27 113.91ZM 24.74 93.61C 24.74 93.3 15.54 101.77 15.31 101.99 13 104.14 10.94 106.53 9.48 108.41 8.02 110.29 7.19 111.69 7.2 111.69 6.83 112.31 7.53 113.02 8.16 112.65 8.16 112.65 9.56 111.83 11.44 110.37 13.32 108.91 15.71 106.84 17.86 104.54 18.1 104.28 26.23 95.46 26.23 95.11 27 94.12 25.73 92.84 24.74 93.61ZM 81.8 105.02C 81.64 104.24 80.9 103.71 80.1 103.83 79.28 103.95 78.71 104.72 78.84 105.54 78.84 105.54 80.31 115.35 80.31 115.35 80.31 115.35 71.4 114.57 71.4 114.57 69.72 114.43 69.4 116.91 71.06 117.2 71.06 117.2 82.21 119.15 82.21 119.15 83.38 119.35 84.48 118.37 84.23 117.04 84.23 117.04 81.8 105.02 81.8 105.02ZM 77.88 111.62C 76.41 109.38 73.22 105.46 69.66 102 67.38 99.81 65.05 97.69 63.25 96.13 61.47 94.57 60.22 93.6 60.21 93.6 59.83 93.3 59.29 93.29 58.89 93.6 58.41 93.96 58.32 94.65 58.69 95.12 58.69 95.12 59.66 96.38 61.22 98.16 62.78 99.95 64.9 102.29 67.09 104.56 70.69 108.27 74.67 111.46 76.71 112.79 77.48 113.3 78.39 112.39 77.88 111.62ZM 5.24 67.65C 5.24 67.65 4.24 58.91 4.24 58.91 4.24 58.91 13.96 60.24 13.96 60.24 15.62 60.47 16.07 58 14.42 57.64 14.42 57.64 2.49 55.01 2.49 55.01 1.27 54.75 0.17 55.8 0.38 57.03 0.38 57.07 2.26 68.03 2.26 68.07 2.59 69.98 5.46 69.58 5.24 67.65ZM 7.01 62.63C 6.83 62.63 11.33 67.95 11.44 68.09 13.23 70.12 15.17 72.62 19.66 76.37 21.22 77.73 22.38 78.53 22.38 78.53 23.38 79.22 24.6 78 23.91 77 23.91 77 23.11 75.84 21.74 74.28 20.41 72.68 18.54 70.64 16.52 68.75 16.25 68.49 8.38 61.63 8 61.63 7.36 61.16 6.53 61.97 7.01 62.63ZM 71.4 59.58C 71.4 59.58 80.31 58.8 80.31 58.8 80.31 58.8 78.84 68.61 78.84 68.61 78.55 70.52 81.42 71.04 81.8 69.13 81.81 69.07 84.23 57.13 84.24 57.07 84.48 55.88 83.44 54.78 82.21 55 82.21 55 71.06 56.95 71.06 56.95 70.39 57.07 69.91 57.68 69.96 58.37 70.03 59.1 70.67 59.64 71.4 59.58ZM 62.24 78.53C 62.25 78.53 63.39 77.72 64.95 76.37 66.55 75.03 68.59 73.18 70.49 71.19 71.45 70.19 72.33 69.13 73.2 68.17 74.57 66.56 76.41 64.46 77.64 62.75 78.2 61.99 77.25 61.05 76.49 61.6 74.37 63.15 67.54 68.71 62.88 74.29 61.52 75.85 60.72 77 60.72 77 60.02 78 61.24 79.23 62.24 78.53Z" fill="rgb(77,41,0)"/></svg>